<?xml version="1.0" encoding="utf-8"?>
<!-- Generator: Adobe Illustrator 25.0.0, SVG Export Plug-In . SVG Version: 6.00 Build 0)  -->
<svg version="1.1" id="Layer_1" xmlns="http://www.w3.org/2000/svg" xmlns:xlink="http://www.w3.org/1999/xlink" x="0px" y="0px"
	 viewBox="0 0 152.2 203" style="enable-background:new 0 0 152.2 203;" xml:space="preserve">
<style type="text/css">
	.st0{fill:#60AA9E;}
	.st1{fill:none;stroke:#69BCB2;stroke-width:6;stroke-miterlimit:10;}
	.st2{fill:#F1F1F1;}
	.st3{fill:#795480;}
	.st4{fill:#69BCB2;}
	.st5{fill:#EFBD80;}
	.st6{fill:#E8E7E7;}
	.st7{fill:#C4C4C4;}
	.st8{opacity:0.5;fill:#FFFFFF;}
	.st9{fill:#D5A777;}
	.st10{fill:#53565B;}
</style>
<g>
	<g>
		<path class="st0" d="M33.5,99.2c13.2,13.2,26.6,26.6,39.8,39.8c13.1-13.1,26.4-26.4,39.8-39.8c-0.2,0-0.6,0-1,0
			c-5.2,0-10.3,0-15.5,0c-2,0-1.8,0.2-1.8-1.8c0-13.8,0-27.6,0-41.5c0-1.6,0-1.6-1.5-1.6c-13.4,0-26.8,0-40.1,0
			c-1.2,0-1.5,0.3-1.5,1.5c0,13.9,0,27.8,0,41.7c0,1.6,0,1.6-1.6,1.6C44.3,99.2,38.7,99.2,33.5,99.2z M73.3,35.9
			c-6.8,0-13.6,0-20.4,0c-1,0-1.4,0.2-1.4,1.3c0.1,3.5,0.1,6.9,0,10.4c0,1,0.3,1.3,1.3,1.3c13.5,0,27.1,0,40.6,0
			c1.1,0,1.3-0.4,1.3-1.4c-0.1-3.4-0.1-6.9,0-10.3c0-1.1-0.3-1.4-1.4-1.3C86.7,35.9,80,35.9,73.3,35.9z M73.1,21.7
			c-6.7,0-13.5,0-20.2,0c-1,0-1.4,0.3-1.4,1.4c0.1,2.1,0.1,4.2,0,6.2c0,0.8,0.2,1.2,1.1,1.2c13.7,0,27.3,0,41,0
			c0.8,0,1.1-0.3,1.1-1.1c0-2.1-0.1-4.2,0-6.2c0.1-1.2-0.4-1.5-1.5-1.5C86.5,21.7,79.8,21.7,73.1,21.7z"/>
		<path class="st0" d="M33.5,99.2c5.3,0,10.8,0,16.4,0c1.6,0,1.6,0,1.6-1.6c0-13.9,0-27.8,0-41.7c0-1.2,0.3-1.6,1.5-1.5
			c13.4,0,26.8,0,40.1,0c1.5,0,1.5,0,1.5,1.6c0,13.8,0,27.6,0,41.5c0,2-0.2,1.8,1.8,1.8c5.2,0,10.3,0,15.5,0c0.4,0,0.8,0,1,0
			c-13.3,13.3-26.7,26.7-39.8,39.8C60.1,125.8,46.7,112.4,33.5,99.2z"/>
		<path class="st0" d="M73.3,35.9c6.7,0,13.4,0,20.1,0c1,0,1.4,0.3,1.4,1.3c-0.1,3.4-0.1,6.9,0,10.3c0,1-0.2,1.4-1.3,1.4
			c-13.5,0-27.1,0-40.6,0c-1,0-1.3-0.3-1.3-1.3c0.1-3.5,0.1-6.9,0-10.4c0-1.1,0.4-1.3,1.4-1.3C59.7,35.9,66.5,35.9,73.3,35.9z"/>
		<path class="st0" d="M73.1,21.7c6.7,0,13.4,0,20.1,0c1.1,0,1.6,0.3,1.5,1.5c-0.1,2.1-0.1,4.2,0,6.2c0,0.9-0.3,1.1-1.1,1.1
			c-13.7,0-27.3,0-41,0c-0.9,0-1.1-0.4-1.1-1.2c0-2.1,0.1-4.2,0-6.2c0-1.1,0.3-1.4,1.4-1.4C59.6,21.7,66.4,21.7,73.1,21.7z"/>
	</g>
	<polyline class="st1" points="18.9,130.8 18.9,147.1 133.3,147.1 133.3,130.8 	"/>
</g>
<g>
	<path class="st2" d="M-68-90.5h200.4c3.2,0,5.8-2.6,5.8-5.8v-30.4c0-3.2-2.6-5.8-5.8-5.8H-68c-3.2,0-5.8,2.6-5.8,5.8v30.4
		C-73.8-93.1-71.2-90.5-68-90.5z"/>
	<g>
		<path class="st3" d="M-55.3-114.8v-1c0-0.2,0.1-0.2,0.2-0.2h1.5c0.2,0,0.2,0.1,0.2,0.2v8.1c0,0.5,0.1,0.8,0.3,1
			c0.2,0.2,0.5,0.3,0.9,0.3h1.1c0.6,0,1,0.3,1,1c0,0.4-0.1,0.7-0.2,0.8s-0.4,0.2-0.7,0.2h-1.4c-0.8,0-1.4-0.1-1.8-0.4
			c-0.4-0.3-0.7-0.8-0.9-1.5c-0.3,0.3-0.7,0.5-1.2,0.6c-0.4,0.1-0.9,0.2-1.5,0.2c-0.6,0-1.2-0.1-1.7-0.3s-1-0.4-1.4-0.8
			c-0.4-0.4-0.7-0.8-0.9-1.4c-0.2-0.6-0.3-1.2-0.3-2c0-0.9,0.1-1.6,0.4-2.3c0.3-0.6,0.6-1.1,1-1.5c0.4-0.4,0.9-0.6,1.5-0.8
			c0.6-0.2,1.1-0.3,1.7-0.3H-55.3z M-57.8-107.5c0.9,0,1.6-0.3,1.9-0.8c0.4-0.5,0.6-1.3,0.6-2.2v-2.4h-2.4c-0.8,0-1.4,0.2-1.8,0.6
			c-0.5,0.4-0.7,1.2-0.7,2.3c0,0.8,0.2,1.5,0.6,1.9C-59.1-107.7-58.5-107.5-57.8-107.5z M-59.8-117.7c-0.2,0-0.2-0.1-0.2-0.2v-1.8
			c0-0.2,0.1-0.2,0.2-0.2h1.6c0.2,0,0.2,0.1,0.2,0.2v1.8c0,0.2-0.1,0.2-0.2,0.2H-59.8z M-56.9-117.7c-0.2,0-0.2-0.1-0.2-0.2v-1.8
			c0-0.2,0.1-0.2,0.2-0.2h1.6c0.2,0,0.2,0.1,0.2,0.2v1.8c0,0.2-0.1,0.2-0.2,0.2H-56.9z"/>
		<path class="st3" d="M-50.9-104.6c-0.3,0-0.6-0.1-0.7-0.2c-0.2-0.1-0.2-0.3-0.2-0.7c0-0.4,0.1-0.7,0.2-0.8
			c0.2-0.1,0.4-0.2,0.7-0.2h1.5c0.4,0,0.7-0.1,0.9-0.3c0.2-0.2,0.3-0.5,0.3-1v-12.9c0-0.2,0.1-0.2,0.2-0.2h1.5
			c0.2,0,0.2,0.1,0.2,0.2l0,7.3c0.8-0.4,1.7-0.8,2.6-1.1c1-0.3,1.9-0.4,3-0.4c1.1,0,2.1,0.2,2.8,0.5c0.7,0.3,1.3,0.7,1.8,1.2
			c0.4,0.5,0.8,1.1,0.9,1.8c0.2,0.7,0.3,1.4,0.3,2.2c0,0.2,0,0.4,0,0.6c0,0.2,0,0.3,0,0.5c0,0.5,0.2,1,0.6,1.2
			c0.4,0.3,0.9,0.4,1.6,0.4h0.3c0.3,0,0.6,0.1,0.7,0.2c0.2,0.1,0.2,0.4,0.2,0.7c0,0.4-0.1,0.7-0.2,0.8c-0.2,0.1-0.4,0.2-0.7,0.2H-33
			c-0.6,0-1.1-0.1-1.5-0.4c-0.4-0.3-0.8-0.6-0.9-1.1c-0.3,0.5-0.7,0.9-1.2,1.2c-0.5,0.2-1.1,0.3-1.9,0.3h-8.1
			c-0.4,0-0.7-0.1-0.8-0.3c-0.4,0.2-0.9,0.3-1.6,0.3H-50.9z M-40.8-112.9c-0.5,0-1,0-1.5,0.1c-0.5,0.1-1,0.2-1.5,0.3
			c-0.5,0.1-0.9,0.3-1.3,0.5c-0.4,0.2-0.8,0.4-1.2,0.5v3.9c0,0.4,0,0.8-0.1,1.2h7.1c0.4,0,0.8,0,1.1-0.1c0.3-0.1,0.5-0.2,0.7-0.4
			c0.2-0.2,0.3-0.5,0.3-0.8c0.1-0.4,0.1-0.8,0.1-1.4c0-0.6-0.1-1.1-0.2-1.6s-0.3-0.9-0.6-1.2c-0.3-0.3-0.7-0.6-1.2-0.7
			C-39.4-112.8-40-112.9-40.8-112.9z M-41.5-116.7c-0.2,0-0.2-0.1-0.2-0.2v-1.8c0-0.2,0.1-0.2,0.2-0.2h1.6c0.2,0,0.2,0.1,0.2,0.2
			v1.8c0,0.2-0.1,0.2-0.2,0.2H-41.5z"/>
		<path class="st3" d="M-27-112.9c-0.5,0-1,0.1-1.5,0.3c-0.5,0.2-0.9,0.5-1.2,0.9c-0.1,0.1-0.2,0.1-0.3,0l-1.1-0.9
			c-0.1-0.1-0.2-0.2-0.1-0.3c0.4-0.6,1-1,1.7-1.4c0.7-0.4,1.5-0.6,2.4-0.6c1.1,0,2,0.2,2.7,0.5c0.7,0.3,1.3,0.8,1.7,1.4
			s0.7,1.2,0.9,1.9c0.2,0.7,0.2,1.5,0.2,2.3c0,0.8-0.1,1.5-0.2,2c-0.1,0.5-0.3,1-0.6,1.3c-0.3,0.3-0.6,0.5-1.1,0.7
			c-0.4,0.1-1,0.2-1.6,0.2h-7.6c-0.6,0-1-0.3-1-1c0-0.4,0.1-0.7,0.2-0.8c0.2-0.1,0.4-0.2,0.7-0.2h6.8c0.4,0,0.8,0,1.1-0.1
			c0.3-0.1,0.5-0.2,0.6-0.4c0.1-0.2,0.2-0.4,0.3-0.7c0-0.3,0.1-0.7,0.1-1.1c0-0.6-0.1-1.2-0.2-1.7c-0.1-0.5-0.3-1-0.5-1.3
			s-0.6-0.7-1-0.9C-25.9-112.8-26.4-112.9-27-112.9z"/>
		<path class="st3" d="M-12.4-106.4h2.8c0.4,0,0.7-0.1,0.9-0.3c0.2-0.2,0.3-0.5,0.3-1v-12.9c0-0.2,0.1-0.2,0.2-0.2h1.5
			c0.2,0,0.2,0.1,0.2,0.2v12.9c0.1,0.4,0.3,0.8,0.7,1c0.4,0.2,0.9,0.3,1.5,0.3H-4c0.3,0,0.6,0.1,0.7,0.2c0.2,0.1,0.2,0.4,0.2,0.7
			c0,0.4-0.1,0.7-0.2,0.8c-0.2,0.1-0.4,0.2-0.7,0.2h-0.5c-0.5,0-0.9-0.1-1.3-0.3s-0.7-0.5-0.9-0.9c-0.4,0.8-1.2,1.2-2.5,1.2h-9.9
			c-0.2,0-0.2-0.1-0.2-0.2v-1.4c0-0.2,0.1-0.2,0.2-0.2h4.7v-10.8c0-0.2,0.1-0.2,0.2-0.2h1.5c0.2,0,0.2,0.1,0.2,0.2V-106.4z"/>
		<path class="st3" d="M3.3-104.4c-0.8,0-1.4-0.1-2-0.3c-0.6-0.2-1.1-0.6-1.5-1c-0.3,0.5-0.8,0.8-1.3,1c-0.5,0.1-1,0.2-1.5,0.2h-1
			c-0.6,0-1-0.3-1-1c0-0.4,0.1-0.7,0.2-0.8c0.2-0.1,0.4-0.2,0.7-0.2h1.2c0.2,0,0.4,0,0.5-0.1c0.2-0.1,0.3-0.2,0.5-0.4
			s0.3-0.4,0.3-0.7c0.1-0.3,0.1-0.6,0.1-1c0-0.2,0-0.3,0-0.5c0-0.2,0-0.3,0-0.5c0-1.8,0.4-3.2,1.2-4c0.8-0.8,1.9-1.2,3.4-1.2
			s2.5,0.4,3.4,1.2c0.8,0.8,1.2,2.2,1.2,4c0,0.2,0,0.4,0,0.5c0,0.2,0,0.3,0,0.5c0,0.8,0.2,1.4,0.5,1.7c0.3,0.3,0.6,0.4,1,0.4H10
			c0.3,0,0.6,0.1,0.7,0.2c0.2,0.1,0.2,0.4,0.2,0.7c0,0.4-0.1,0.7-0.2,0.8c-0.2,0.1-0.4,0.2-0.7,0.2H9.4c-0.2,0-0.5,0-0.7,0
			s-0.5-0.1-0.8-0.2c-0.2-0.1-0.5-0.2-0.7-0.3c-0.2-0.2-0.4-0.4-0.6-0.6c-0.4,0.5-0.9,0.8-1.5,1C4.6-104.5,4-104.4,3.3-104.4z
			 M3.3-112.9c-0.9,0-1.5,0.3-2,0.9s-0.6,1.4-0.6,2.5c0,1.2,0.2,2,0.6,2.5c0.4,0.5,1.1,0.8,2,0.8c0.9,0,1.5-0.3,2-0.8
			c0.4-0.5,0.6-1.4,0.6-2.5c0-1.1-0.2-1.9-0.6-2.5S4.1-112.9,3.3-112.9z"/>
		<path class="st3" d="M9.9-104.6c-0.3,0-0.6-0.1-0.7-0.2c-0.2-0.1-0.2-0.3-0.2-0.7c0-0.4,0.1-0.7,0.2-0.8c0.2-0.1,0.4-0.2,0.7-0.2
			h1.5c0.4,0,0.7-0.1,0.9-0.3c0.2-0.2,0.3-0.5,0.3-1v-12.9c0-0.2,0.1-0.2,0.2-0.2h1.5c0.2,0,0.2,0.1,0.2,0.2v13.1
			c0,1-0.2,1.8-0.6,2.3c-0.4,0.5-1.2,0.7-2.2,0.7H9.9z"/>
		<path class="st3" d="M20-104.8c0,0.2-0.1,0.2-0.2,0.2h-1.5c-0.2,0-0.2-0.1-0.2-0.2v-15.8c0-0.2,0.1-0.2,0.2-0.2h1.5
			c0.2,0,0.2,0.1,0.2,0.2V-104.8z"/>
		<path class="st3" d="M43.5-106.7c0.2-0.2,0.3-0.5,0.3-1v-6.4c0-0.2,0.1-0.2,0.2-0.2h1.5c0.2,0,0.2,0.1,0.2,0.2v6.6
			c0,1-0.2,1.8-0.6,2.3c-0.4,0.5-1.2,0.7-2.2,0.7H31.4c-1,0-1.7-0.2-2.2-0.7c-0.4-0.5-0.6-1.3-0.6-2.3v-5c0-0.2,0.1-0.2,0.2-0.2h1.5
			c0.2,0,0.2,0.1,0.2,0.2v4.9c0,0.5,0.1,0.8,0.3,1c0.2,0.2,0.5,0.3,0.9,0.3h10.8C43-106.4,43.3-106.5,43.5-106.7z M34.9-115.3
			c-0.2,0-0.2-0.1-0.2-0.2v-1.8c0-0.2,0.1-0.2,0.2-0.2h1.6c0.2,0,0.2,0.1,0.2,0.2v1.8c0,0.2-0.1,0.2-0.2,0.2H34.9z M37.9-115.3
			c-0.2,0-0.2-0.1-0.2-0.2v-1.8c0-0.2,0.1-0.2,0.2-0.2h1.6c0.2,0,0.2,0.1,0.2,0.2v1.8c0,0.2-0.1,0.2-0.2,0.2H37.9z"/>
		<path class="st3" d="M50.8-104.8c0,0.2-0.1,0.2-0.2,0.2h-1.5c-0.2,0-0.2-0.1-0.2-0.2v-15.8c0-0.2,0.1-0.2,0.2-0.2h1.5
			c0.2,0,0.2,0.1,0.2,0.2V-104.8z"/>
		<path class="st3" d="M55.9-99.8c-0.2,0-0.2-0.1-0.2-0.2v-1.4c0-0.2,0.1-0.2,0.2-0.2h2.9c0.3,0,0.6,0,0.9-0.1
			c0.3-0.1,0.5-0.2,0.7-0.4s0.4-0.4,0.5-0.7c0.1-0.3,0.2-0.7,0.2-1.1v-0.6h-2.6c-0.7,0-1.3-0.1-1.9-0.3c-0.6-0.2-1.1-0.4-1.5-0.8
			c-0.4-0.4-0.7-0.9-0.9-1.5s-0.3-1.4-0.3-2.3s0.1-1.7,0.4-2.4c0.2-0.7,0.6-1.2,1-1.7c0.4-0.4,0.9-0.8,1.5-1
			c0.6-0.2,1.2-0.3,1.8-0.3c1.4,0,2.5,0.4,3.3,1.2c0.8,0.8,1.2,2.2,1.2,4v5.6c0,0.8-0.1,1.4-0.3,1.9c-0.2,0.5-0.5,1-0.8,1.3
			c-0.4,0.3-0.8,0.6-1.3,0.7c-0.5,0.2-1.1,0.2-1.7,0.2H55.9z M58.5-112.9c-0.8,0-1.5,0.3-1.9,1c-0.5,0.6-0.7,1.5-0.7,2.5
			c0,1.1,0.2,1.9,0.7,2.4c0.5,0.4,1.1,0.6,2,0.6H61v-3.1c0-1.1-0.2-1.9-0.6-2.5S59.4-112.9,58.5-112.9z"/>
		<path class="st3" d="M75-108.7c0,0.8-0.1,1.5-0.2,2c-0.1,0.5-0.3,0.9-0.6,1.3c-0.3,0.3-0.6,0.5-1.1,0.7s-1,0.2-1.6,0.2h-5.3
			c-0.2,0-0.2-0.1-0.2-0.2v-1.4c0-0.2,0.1-0.2,0.2-0.2h4.6c0.4,0,0.8,0,1.1-0.1c0.3-0.1,0.5-0.2,0.6-0.4c0.1-0.2,0.2-0.4,0.3-0.7
			c0-0.3,0.1-0.6,0.1-1v-1.9c0-1.6-0.9-2.4-2.7-2.4h-2.8c-0.2,0-0.2-0.1-0.2-0.2v-1.4c0-0.2,0.1-0.2,0.2-0.2h3.5c1.2,0,2.2,0.3,3,1
			s1.2,1.8,1.2,3.2V-108.7z"/>
		<path class="st3" d="M77.4-123.1c-0.1-0.2-0.2-0.4-0.3-0.6s-0.1-0.5-0.1-0.8c0-0.3,0-0.5,0.1-0.8s0.2-0.5,0.4-0.8s0.4-0.4,0.8-0.6
			c0.3-0.2,0.7-0.2,1.2-0.2c0.4,0,0.8,0.1,1.1,0.2c0.3,0.1,0.6,0.4,0.8,0.6c0,0.1,0,0.2,0,0.2l-0.5,0.4c-0.1,0.1-0.2,0.1-0.3,0
			c-0.1-0.2-0.3-0.3-0.5-0.4s-0.4-0.2-0.6-0.2c-0.4,0-0.8,0.1-1,0.4c-0.2,0.3-0.3,0.6-0.3,1c0,0.4,0.1,0.7,0.3,0.9
			c0.2,0.3,0.4,0.5,0.5,0.6h2.5c0.1,0,0.1,0.1,0.1,0.2v0.7c0,0.1,0,0.2-0.1,0.2h-4.9c-0.1,0-0.1-0.1-0.1-0.2v-0.7
			c0-0.1,0-0.2,0.1-0.2H77.4z M80-104.8c0,0.2-0.1,0.2-0.2,0.2h-1.5c-0.2,0-0.2-0.1-0.2-0.2v-15.8c0-0.2,0.1-0.2,0.2-0.2h1.5
			c0.2,0,0.2,0.1,0.2,0.2V-104.8z"/>
	</g>
	<g>
		<path class="st0" d="M139.1-136.9C139.1-136.9,139.1-136.9,139.1-136.9c-0.3-0.1-0.5-0.3-0.8-0.4c-0.1-0.1-0.3-0.1-0.4-0.1
			c-0.2,0-0.3-0.1-0.5-0.1c-0.3-0.1-0.7-0.1-1.1-0.1H94.5c-0.4,0-0.7,0-1.1,0.1c-0.2,0-0.3,0.1-0.5,0.1c-0.1,0-0.3,0.1-0.4,0.1
			c-0.3,0.1-0.5,0.2-0.7,0.3c0,0,0,0,0,0c-1.8,1-3,2.9-3,5.1v23.3V-90c0,3.2,2.6,5.8,5.8,5.8h41.9c3.2,0,5.8-2.6,5.8-5.8v-18.6
			v-23.3C142.1-134.1,140.9-135.9,139.1-136.9z"/>
		<path class="st4" d="M137.4-135.1C137.4-135.1,137.4-135.1,137.4-135.1c-0.2-0.1-0.5-0.2-0.7-0.3c-0.1-0.1-0.3-0.1-0.4-0.1
			c-0.2,0-0.3-0.1-0.5-0.1c-0.3-0.1-0.6-0.1-1-0.1H95.9c-0.3,0-0.7,0-1,0.1c-0.2,0-0.3,0.1-0.5,0.1c-0.1,0-0.3,0.1-0.4,0.1
			c-0.2,0.1-0.5,0.2-0.7,0.3c0,0,0,0,0,0c-1.7,0.9-2.8,2.7-2.8,4.7v21.6v17.3c0,3,2.4,5.4,5.4,5.4h38.9c3,0,5.4-2.4,5.4-5.4v-17.3
			v-21.6C140.2-132.4,139.1-134.2,137.4-135.1z"/>
		<g>
			<path class="st5" d="M73.5-94.5v19.7h19.7v-8.9v-10.8h-4.5H73.5z M91.7-84.2v8H75V-93h13.7h3V-84.2z"/>
		</g>
		<g>
			<path class="st6" d="M127.4-110.1c0,3.9-5.4,8.3-12,8.3c-6.7,0-12-4.4-12-8.3c0-3.9,5.4-8.3,12-8.3
				C122.1-118.4,127.4-114,127.4-110.1L127.4-110.1z M127.4-110.1"/>
			<path class="st7" d="M127.4-110.1c0,3.9-5.4,8.3-12,8.3c-0.3,0-0.6,0-0.9,0c6.2-0.4,11.1-4.5,11.1-8.2c0-3.7-4.9-7.8-11.1-8.2
				c0.3,0,0.6,0,0.9,0C122.1-118.4,127.4-114,127.4-110.1L127.4-110.1z M127.4-110.1"/>
			<path class="st4" d="M120.4-110.1c0,2.7-2.2,5-5,5s-5-2.2-5-5s2.2-5,5-5S120.4-112.9,120.4-110.1L120.4-110.1z M120.4-110.1"/>
			<path class="st0" d="M117.3-110.1c0,1.1-0.9,1.9-1.9,1.9s-1.9-0.9-1.9-1.9s0.9-1.9,1.9-1.9S117.3-111.2,117.3-110.1L117.3-110.1z
				 M117.3-110.1"/>
		</g>
		<g>
			<path class="st8" d="M126.5-95.4c6.7-7.1,6.7-18.7,0-25.8c-6.7-7.1-17.6-7.1-24.3,0c-6.7,7.1-6.7,18.7,0,25.8
				C109-88.3,119.9-88.3,126.5-95.4L126.5-95.4z M126.5-95.4"/>
			<g>
				<g>
					<path class="st9" d="M98.5-95.2c-5.2-5.2-7.4-12.4-6.4-19.2c0.7,4.7,2.8,9.1,6.4,12.7c8.8,8.8,23.1,8.8,31.9,0
						c3.6-3.6,5.7-8.1,6.4-12.7c1,6.8-1.1,14-6.4,19.2C121.6-86.4,107.3-86.4,98.5-95.2L98.5-95.2z M98.5-95.2"/>
					<path class="st2" d="M150.8-71.7c1.8-1.8,1.8-4.8,0-6.7l-21.1-22.3l-6.7,6.7l21.1,22.3C146-69.8,149-69.8,150.8-71.7
						L150.8-71.7z M150.8-71.7"/>
				</g>
				<path class="st5" d="M98.3-125.3c8.8-8.8,23.1-8.8,31.9,0c8.8,8.8,8.8,23.1,0,31.9c-8.8,8.8-23.1,8.8-31.9,0
					C89.5-102.2,89.5-116.5,98.3-125.3z M102.7-97.8c6.4,6.4,16.8,6.4,23.2,0c6.4-6.4,6.4-16.8,0-23.2c-6.4-6.4-16.8-6.4-23.2,0
					C96.3-114.6,96.3-104.1,102.7-97.8z"/>
			</g>
		</g>
	</g>
</g>
<g>
	<path class="st10" d="M43.2,172.1c0.1-0.1,0.2-0.2,0.4,0l1.7,0.9c0.2,0.1,0.2,0.2,0.1,0.4c-0.4,0.6-0.7,1.3-1.1,2.1
		c-0.3,0.8-0.5,1.7-0.5,2.7c0,0.9,0.1,1.6,0.4,2.2c0.3,0.6,0.7,1.1,1.2,1.4c0.5,0.3,1,0.6,1.6,0.7c0.6,0.1,1.1,0.2,1.6,0.2
		c1.3,0,2.4-0.3,3.3-1c0.8-0.7,1.3-1.8,1.3-3.3v-20.1c0-0.2,0.1-0.3,0.3-0.3h2c0.2,0,0.3,0.1,0.3,0.3v16.2c0,0.7,0.3,1.2,0.8,1.6
		c0.5,0.4,1.2,0.5,2,0.5h0.3c0.4,0,0.7,0.1,0.9,0.3c0.2,0.2,0.3,0.5,0.3,0.9c0,0.5-0.1,0.9-0.3,1s-0.5,0.2-0.9,0.2h-0.7
		c-1.1,0-1.9-0.3-2.5-1v0.4c0,2.1-0.6,3.8-1.9,5c-1.3,1.2-3.1,1.8-5.4,1.8c-1.1,0-2.1-0.2-3-0.4c-0.9-0.3-1.7-0.7-2.3-1.3
		c-0.6-0.6-1.1-1.3-1.5-2.1c-0.4-0.8-0.5-1.8-0.5-2.9c0-1.2,0.2-2.4,0.6-3.5C42.2,173.8,42.7,172.8,43.2,172.1z"/>
	<path class="st10" d="M59.1,179c-0.4,0-0.7-0.1-0.9-0.2s-0.3-0.4-0.3-0.9c0-0.5,0.1-0.9,0.3-1.1c0.2-0.2,0.5-0.3,0.9-0.3h2.1
		c0.5,0,0.9-0.1,1.1-0.4c0.2-0.2,0.4-0.7,0.4-1.3v-8.3c0-0.2,0.1-0.3,0.3-0.3h2c0.2,0,0.3,0.1,0.3,0.3v7.8c0,0.7,0.3,1.2,0.8,1.6
		c0.5,0.4,1.2,0.5,2,0.5h0.4c0.4,0,0.7,0.1,0.9,0.3s0.3,0.5,0.3,0.9c0,0.5-0.1,0.9-0.3,1c-0.2,0.2-0.5,0.2-0.9,0.2h-0.7
		c-0.7,0-1.2-0.1-1.7-0.4c-0.5-0.3-0.9-0.7-1.1-1.2c-0.5,1.1-1.6,1.6-3.2,1.6H59.1z M60.7,184.8c-0.2,0-0.3-0.1-0.3-0.3v-2.3
		c0-0.2,0.1-0.3,0.3-0.3h2.1c0.2,0,0.3,0.1,0.3,0.3v2.3c0,0.2-0.1,0.3-0.3,0.3H60.7z M64.5,184.8c-0.2,0-0.3-0.1-0.3-0.3v-2.3
		c0-0.2,0.1-0.3,0.3-0.3h2.1c0.2,0,0.3,0.1,0.3,0.3v2.3c0,0.2-0.1,0.3-0.3,0.3H64.5z"/>
	<path class="st10" d="M77.9,179.3c-1,0-1.8-0.1-2.6-0.4c-0.7-0.3-1.4-0.7-1.9-1.3c-0.4,0.7-1,1.1-1.7,1.3c-0.7,0.2-1.3,0.3-1.9,0.3
		h-1.3c-0.8,0-1.2-0.4-1.2-1.2c0-0.5,0.1-0.8,0.3-1c0.2-0.1,0.5-0.2,0.9-0.2H70c0.2,0,0.5,0,0.7-0.1c0.2-0.1,0.4-0.2,0.6-0.5
		s0.3-0.5,0.4-0.9c0.1-0.4,0.2-0.8,0.2-1.3c0-0.2,0-0.4,0-0.6c0-0.2,0-0.4,0-0.6c0-2.4,0.5-4.1,1.6-5.2s2.5-1.6,4.3-1.6
		c1.8,0,3.3,0.5,4.3,1.6s1.6,2.8,1.6,5.2c0,0.2,0,0.5,0,0.7c0,0.2,0,0.4,0,0.7c0,1.1,0.2,1.8,0.6,2.2s0.8,0.6,1.3,0.6h0.9
		c0.4,0,0.7,0.1,0.9,0.3c0.2,0.2,0.3,0.5,0.3,0.9c0,0.5-0.1,0.9-0.3,1S87,179,86.5,179h-0.7c-0.3,0-0.6,0-0.9,0
		c-0.3,0-0.7-0.1-1-0.2s-0.6-0.3-0.9-0.4c-0.3-0.2-0.5-0.5-0.7-0.8c-0.5,0.6-1.1,1-1.9,1.3C79.7,179.1,78.8,179.3,77.9,179.3z
		 M77.9,168.2c-1.2,0-2,0.4-2.5,1.1c-0.5,0.8-0.8,1.8-0.8,3.2c0,1.5,0.3,2.6,0.8,3.3c0.5,0.7,1.4,1,2.5,1c1.2,0,2-0.3,2.5-1
		c0.5-0.7,0.8-1.8,0.8-3.3c0-1.4-0.3-2.4-0.8-3.2C79.9,168.6,79,168.2,77.9,168.2z"/>
	<path class="st10" d="M93.8,168.2c-0.7,0-1.3,0.1-1.9,0.4s-1.1,0.7-1.6,1.2c-0.1,0.1-0.3,0.2-0.4,0l-1.4-1.1
		c-0.2-0.1-0.2-0.3-0.1-0.4c0.6-0.7,1.3-1.3,2.2-1.8c0.9-0.5,1.9-0.7,3.1-0.7c1.4,0,2.6,0.2,3.5,0.7c0.9,0.4,1.6,1,2.2,1.8
		c0.5,0.7,0.9,1.6,1.1,2.5c0.2,1,0.3,1.9,0.3,2.9c0,0.2,0,0.4,0,0.5c0,0.2,0,0.3,0,0.5c0,0.6,0.3,1.1,0.8,1.4c0.5,0.3,1.2,0.5,2,0.5
		h0.3c0.4,0,0.7,0.1,0.9,0.3c0.2,0.2,0.3,0.5,0.3,0.9c0,0.5-0.1,0.9-0.3,1c-0.2,0.2-0.5,0.2-0.9,0.2h-0.7c-0.7,0-1.3-0.1-1.9-0.4
		c-0.6-0.3-1-0.7-1.2-1.3c-0.4,0.7-0.9,1.1-1.5,1.4c-0.6,0.3-1.4,0.4-2.4,0.4h-9.8c-0.8,0-1.2-0.4-1.2-1.2c0-0.5,0.1-0.8,0.3-1
		c0.2-0.1,0.5-0.2,0.9-0.2h8.8c0.6,0,1,0,1.4-0.1c0.4-0.1,0.6-0.3,0.8-0.5c0.2-0.2,0.3-0.5,0.4-0.9c0.1-0.4,0.1-0.9,0.1-1.4
		c0-0.8-0.1-1.5-0.2-2.2s-0.4-1.3-0.7-1.7c-0.3-0.5-0.7-0.9-1.3-1.1C95.2,168.3,94.6,168.2,93.8,168.2z"/>
	<path class="st10" d="M103.8,179c-0.4,0-0.7-0.1-0.9-0.2c-0.2-0.1-0.3-0.4-0.3-0.9c0-0.5,0.1-0.9,0.3-1.1c0.2-0.2,0.5-0.3,0.9-0.3
		h2.1c0.5,0,0.9-0.1,1.1-0.4c0.2-0.2,0.4-0.7,0.4-1.3v-8.3c0-0.2,0.1-0.3,0.3-0.3h2c0.2,0,0.3,0.1,0.3,0.3v8.5c0,1.3-0.3,2.3-0.8,3
		c-0.6,0.6-1.5,0.9-2.8,0.9H103.8z M105.8,163.3c-0.2,0-0.3-0.1-0.3-0.3v-2.3c0-0.2,0.1-0.3,0.3-0.3h2.1c0.2,0,0.3,0.1,0.3,0.3v2.3
		c0,0.2-0.1,0.3-0.3,0.3H105.8z M109.6,163.3c-0.2,0-0.3-0.1-0.3-0.3v-2.3c0-0.2,0.1-0.3,0.3-0.3h2.1c0.2,0,0.3,0.1,0.3,0.3v2.3
		c0,0.2-0.1,0.3-0.3,0.3H109.6z"/>
</g>
</svg>
